<svg xmlns="http://www.w3.org/2000/svg" width="1600" height="940" viewBox="0 0 1600 940" role="img" aria-labelledby="title desc">
  <title id="title">ZenithMind AI-Powered Mental Health Assistant Architecture</title>
  <desc id="desc">Architecture diagram for ZenithMind showing the React client, Express API, Socket.IO realtime layer, MongoDB data layer, and integrations with Gemini, Google Fit, and Zoom.</desc>

  <defs>
    <marker id="arrow" viewBox="0 0 10 10" refX="9" refY="5" markerWidth="8" markerHeight="8" orient="auto-start-reverse">
      <path d="M 0 0 L 10 5 L 0 10 z" fill="#111111" />
    </marker>
    <marker id="arrow-blue" viewBox="0 0 10 10" refX="9" refY="5" markerWidth="8" markerHeight="8" orient="auto-start-reverse">
      <path d="M 0 0 L 10 5 L 0 10 z" fill="#2563eb" />
    </marker>
    <style>
      .canvas { fill: #ffffff; }
      .group { fill: #ffffff; stroke: #2563eb; stroke-width: 2; stroke-dasharray: 8 7; }
      .group-title { font: 700 22px Arial, Helvetica, sans-serif; fill: #111111; }
      .box { fill: #ffffff; stroke: #111111; stroke-width: 2; }
      .box-blue { fill: #ffffff; stroke: #2563eb; stroke-width: 2; }
      .box-green { fill: #ffffff; stroke: #0f9f6e; stroke-width: 2; }
      .box-orange { fill: #ffffff; stroke: #f97316; stroke-width: 2; }
      .box-purple { fill: #ffffff; stroke: #7c3aed; stroke-width: 2; }
      .box-red { fill: #ffffff; stroke: #dc2626; stroke-width: 2; }
      .box-cyan { fill: #ffffff; stroke: #0891b2; stroke-width: 2; }
      .box-title { font: 700 17px Arial, Helvetica, sans-serif; fill: #111111; }
      .box-title-sm { font: 700 15px Arial, Helvetica, sans-serif; fill: #111111; }
      .box-sub { font: 14px Arial, Helvetica, sans-serif; fill: #111111; }
      .box-sub-sm { font: 12px Arial, Helvetica, sans-serif; fill: #111111; }
      .small { font: 12px Arial, Helvetica, sans-serif; fill: #111111; }
      .label { font: 14px Arial, Helvetica, sans-serif; fill: #111111; }
      .arrow { stroke: #111111; stroke-width: 2; fill: none; marker-end: url(#arrow); }
      .arrow-soft { stroke: #2563eb; stroke-width: 2; stroke-dasharray: 6 6; fill: none; marker-end: url(#arrow-blue); }
      .line { stroke: #111111; stroke-width: 2; fill: none; }
      .icon { fill: #ffffff; stroke: #111111; stroke-width: 2; stroke-linecap: round; stroke-linejoin: round; }
      .icon-fill { fill: #111111; }
    </style>
  </defs>

  <rect class="canvas" x="0" y="0" width="1600" height="940" />
  <text x="800" y="48" text-anchor="middle" class="group-title">ZenithMind AI-Powered Mental Health Assistant Architecture</text>

  <rect class="group" x="50" y="90" width="430" height="670" rx="4" />
  <text x="76" y="124" class="group-title">React Client</text>

  <rect class="group" x="520" y="90" width="545" height="670" rx="4" />
  <text x="546" y="124" class="group-title">Node / Express API</text>

  <rect class="group" x="1105" y="90" width="445" height="670" rx="4" />
  <text x="1131" y="124" class="group-title">Data and Integrations</text>

  <rect class="group" x="50" y="790" width="1500" height="105" rx="4" />
  <text x="76" y="823" class="group-title">Runtime Configuration and Delivery</text>

  <g transform="translate(90,160)">
    <rect class="box" x="0" y="0" width="350" height="84" rx="2" />
    <circle class="icon" cx="42" cy="30" r="16" />
    <path class="icon" d="M 15 68 C 23 48 65 48 73 68" />
    <text x="92" y="33" class="box-title">Users</text>
    <text x="92" y="57" class="box-sub">member, therapist, admin</text>
  </g>

  <g transform="translate(90,280)">
    <rect class="box-blue" x="0" y="0" width="350" height="106" rx="2" />
    <rect class="icon" x="26" y="28" width="54" height="42" />
    <path class="icon" d="M 26 41 H 80 M 38 54 H 67 M 38 64 H 57" />
    <text x="100" y="32" class="box-title">React Router App</text>
    <text x="100" y="56" class="box-sub">ProtectedRoute role gates</text>
    <text x="100" y="77" class="box-sub">login, signup, dashboards</text>
  </g>

  <g transform="translate(90,430)">
    <rect class="box-purple" x="0" y="0" width="350" height="154" rx="2" />
    <path class="icon" d="M 29 29 H 76 M 29 48 H 76 M 29 67 H 76" />
    <circle class="icon-fill" cx="86" cy="29" r="3" />
    <circle class="icon-fill" cx="86" cy="48" r="3" />
    <circle class="icon-fill" cx="86" cy="67" r="3" />
    <text x="112" y="33" class="box-title">Wellness Feature UI</text>
    <text x="112" y="57" class="box-sub">mood, sleep, stress, reports</text>
    <text x="112" y="78" class="box-sub">mental games, nutrition</text>
    <text x="112" y="99" class="box-sub">AI chat and motivation</text>
    <text x="112" y="120" class="box-sub">appointments and community</text>
  </g>

  <g transform="translate(90,625)">
    <rect class="box-green" x="0" y="0" width="350" height="84" rx="2" />
    <path class="icon" d="M 25 35 H 77 M 37 22 V 68 M 65 22 V 68" />
    <text x="102" y="33" class="box-title">Client State and API Calls</text>
    <text x="102" y="57" class="box-sub">localStorage JWT, AppDataContext</text>
  </g>

  <path class="arrow" d="M 265 244 V 272" />
  <path class="arrow" d="M 265 386 V 422" />
  <path class="arrow" d="M 265 584 V 617" />

  <g transform="translate(560,160)">
    <rect class="box" x="0" y="0" width="210" height="86" rx="2" />
    <path class="icon" d="M 25 26 H 73 V 62 H 25 Z" />
    <path class="icon" d="M 34 37 H 64 M 34 49 H 64" />
    <text x="95" y="34" class="box-title">Express Server</text>
    <text x="95" y="58" class="box-sub">helmet, CORS, JSON</text>
  </g>

  <g transform="translate(815,160)">
    <rect class="box-orange" x="0" y="0" width="210" height="86" rx="2" />
    <path class="icon" d="M 36 64 H 74 V 37 C 74 17 36 17 36 37 Z" />
    <path class="icon" d="M 45 64 V 37 C 45 28 65 28 65 37 V 64" />
    <text x="98" y="34" class="box-title">Auth Layer</text>
    <text x="98" y="58" class="box-sub">JWT and role checks</text>
  </g>

  <g transform="translate(560,295)">
    <rect class="box-blue" x="0" y="0" width="465" height="142" rx="2" />
    <path class="icon" d="M 27 31 H 74 M 27 50 H 74 M 27 69 H 74" />
    <circle class="icon-fill" cx="84" cy="31" r="3" />
    <circle class="icon-fill" cx="84" cy="50" r="3" />
    <circle class="icon-fill" cx="84" cy="69" r="3" />
    <text x="118" y="34" class="box-title">Domain REST Routes</text>
    <text x="118" y="58" class="box-sub">auth, admin, therapist, users</text>
    <text x="118" y="79" class="box-sub">mood, stress, sleep, activity</text>
    <text x="118" y="100" class="box-sub">exercises, nutrition, games, reports</text>
    <text x="118" y="121" class="box-sub">appointments and prescriptions</text>
  </g>

  <g transform="translate(560,480)">
    <rect class="box-purple" x="0" y="0" width="220" height="112" rx="2" />
    <circle class="icon" cx="48" cy="45" r="20" />
    <path class="icon" d="M 48 25 V 45 L 62 55" />
    <text x="96" y="35" class="box-title">AI Wellness API</text>
    <text x="96" y="59" class="box-sub">/api/ai routes</text>
    <text x="96" y="80" class="box-sub">Gemini proxy</text>
  </g>

  <g transform="translate(805,480)">
    <rect class="box-green" x="0" y="0" width="220" height="112" rx="2" />
    <path class="icon" d="M 27 61 C 36 30 76 30 85 61" />
    <path class="icon" d="M 37 61 C 43 42 69 42 75 61" />
    <text x="103" y="35" class="box-title">Google Fit API</text>
    <text x="103" y="59" class="box-sub">OAuth status</text>
    <text x="103" y="80" class="box-sub">health data fetchers</text>
  </g>

  <g transform="translate(560,635)">
    <rect class="box-cyan" x="0" y="0" width="465" height="84" rx="2" />
    <path class="icon" d="M 28 36 C 28 26 40 18 54 18 C 68 18 80 26 80 36 C 80 46 68 54 54 54 C 49 54 44 53 40 51 L 28 60 L 32 47 C 29 44 28 40 28 36 Z" />
    <text x="116" y="33" class="box-title">Socket.IO Community Layer</text>
    <text x="116" y="57" class="box-sub">group rooms, online users, realtime messages</text>
  </g>

  <path class="arrow" d="M 770 203 H 807" />
  <path class="arrow" d="M 920 246 V 287" />
  <path class="arrow" d="M 662 246 V 287" />
  <path class="arrow" d="M 792 437 V 472" />
  <path class="arrow" d="M 792 437 C 792 455 915 455 915 472" />
  <path class="arrow" d="M 792 437 V 627" />

  <path class="arrow" d="M 440 667 H 552" />
  <text x="470" y="648" class="label">HTTP + JWT</text>
  <path class="arrow-soft" d="M 440 546 C 485 546 505 677 552 677" />
  <text x="454" y="565" class="label">Socket.IO</text>

  <g transform="translate(1145,160)">
    <rect class="box-green" x="0" y="0" width="365" height="174" rx="2" />
    <path class="icon" d="M 28 34 C 28 22 88 22 88 34 V 98 C 88 110 28 110 28 98 Z" />
    <path class="icon" d="M 28 34 C 28 46 88 46 88 34" />
    <path class="icon" d="M 28 56 C 28 68 88 68 88 56" />
    <path class="icon" d="M 28 78 C 28 90 88 90 88 78" />
    <text x="120" y="34" class="box-title">MongoDB Atlas / Local MongoDB</text>
    <text x="120" y="58" class="box-sub">Mongoose models</text>
    <text x="120" y="82" class="box-sub">users, therapists, appointments</text>
    <text x="120" y="103" class="box-sub">mood, stress, sleep, activity</text>
    <text x="120" y="124" class="box-sub">chat, scores, tokens, journals</text>
  </g>

  <g transform="translate(1145,375)">
    <rect class="box-purple" x="0" y="0" width="170" height="104" rx="2" />
    <circle class="icon" cx="45" cy="39" r="18" />
    <path class="icon" d="M 34 39 H 56 M 45 28 V 50" />
    <text x="86" y="37" class="box-title-sm">Gemini API</text>
    <text x="86" y="59" class="box-sub-sm">CBT chat and</text>
    <text x="86" y="76" class="box-sub-sm">AI responses</text>
  </g>

  <g transform="translate(1340,375)">
    <rect class="box-orange" x="0" y="0" width="170" height="104" rx="2" />
    <path class="icon" d="M 30 35 H 60 L 75 51 L 60 67 H 30 Z" />
    <path class="icon" d="M 43 35 V 67" />
    <text x="88" y="37" class="box-title-sm">Google Fit</text>
    <text x="88" y="59" class="box-sub-sm">OAuth and</text>
    <text x="88" y="76" class="box-sub-sm">Fitness APIs</text>
  </g>

  <g transform="translate(1145,520)">
    <rect class="box-cyan" x="0" y="0" width="170" height="104" rx="2" />
    <path class="icon" d="M 29 38 H 60 V 66 H 29 Z" />
    <path class="icon" d="M 60 46 L 80 35 V 69 L 60 58 Z" />
    <text x="93" y="37" class="box-title-sm">Zoom API</text>
    <text x="93" y="59" class="box-sub-sm">meeting links</text>
    <text x="93" y="76" class="box-sub-sm">for sessions</text>
  </g>

  <g transform="translate(1340,520)">
    <rect class="box-red" x="0" y="0" width="170" height="104" rx="2" />
    <path class="icon" d="M 31 31 H 70 V 72 H 31 Z" />
    <path class="icon" d="M 39 43 H 62 M 39 54 H 62 M 39 65 H 54" />
    <text x="92" y="37" class="box-title-sm">Static Media</text>
    <text x="92" y="59" class="box-sub-sm">images, audio,</text>
    <text x="92" y="76" class="box-sub-sm">video assets</text>
  </g>

  <path class="arrow" d="M 1025 366 H 1137" />
  <text x="1050" y="347" class="label">CRUD via Mongoose</text>

  <path class="arrow" d="M 780 536 H 1137" />
  <text x="948" y="519" class="label">AI prompts</text>

  <path class="arrow" d="M 1025 536 C 1088 536 1088 427 1137 427" />
  <text x="1040" y="493" class="label">Gemini</text>

  <path class="arrow" d="M 1025 536 C 1098 536 1240 427 1332 427" />
  <text x="1190" y="484" class="label">health OAuth/data</text>

  <path class="arrow" d="M 910 592 C 1010 665 1190 660 1230 632" />
  <text x="1018" y="654" class="label">appointment meetings</text>

  <path class="arrow-soft" d="M 792 719 C 930 782 1130 710 1188 342" />
  <text x="915" y="756" class="label">persist chat sessions and presence</text>

  <g transform="translate(90,840)">
    <rect class="box" x="0" y="0" width="300" height="36" rx="2" />
    <text x="20" y="24" class="box-sub">Create React App on localhost:3000</text>
  </g>

  <g transform="translate(430,840)">
    <rect class="box" x="0" y="0" width="300" height="36" rx="2" />
    <text x="20" y="24" class="box-sub">Express API on localhost:7000</text>
  </g>

  <g transform="translate(770,840)">
    <rect class="box" x="0" y="0" width="330" height="36" rx="2" />
    <text x="20" y="24" class="box-sub">Environment variables for secrets</text>
  </g>

  <g transform="translate(1140,840)">
    <rect class="box" x="0" y="0" width="330" height="36" rx="2" />
    <text x="20" y="24" class="box-sub">Dev proxy and configurable API base</text>
  </g>

  <path class="arrow" d="M 390 858 H 422" />
  <path class="arrow" d="M 730 858 H 762" />
  <path class="arrow" d="M 1100 858 H 1132" />
</svg>
